<?xml version="1.0" encoding="UTF-8" standalone="no"?>
<svg
   xmlns:dc="http://purl.org/dc/elements/1.1/"
   xmlns:cc="http://creativecommons.org/ns#"
   xmlns:rdf="http://www.w3.org/1999/02/22-rdf-syntax-ns#"
   xmlns:svg="http://www.w3.org/2000/svg"
   xmlns="http://www.w3.org/2000/svg"
   width="40"
   height="40"
   viewBox="0 0 40 40"
   fill="none"
   version="1.1"
   id="svg78">
  <metadata
     id="metadata84">
    <rdf:RDF>
      <cc:Work
         rdf:about="">
        <dc:format>image/svg+xml</dc:format>
        <dc:type
           rdf:resource="http://purl.org/dc/dcmitype/StillImage" />
        <dc:title></dc:title>
      </cc:Work>
    </rdf:RDF>
  </metadata>
  <defs
     id="defs82" />
  <rect
     x="1"
     y="1"
     width="38"
     height="38"
     rx="19"
     stroke="#ff3e79"
     stroke-width="2"
     id="rect74"
     style="fill:#ff3e79;stroke:#ff3e79;stroke-opacity:1;fill-opacity:1" />
  <path
     fill-rule="evenodd"
     clip-rule="evenodd"
     d="M21.5 20L17.7071 16.2071C17.3166 15.8166 17.3166 15.1834 17.7071 14.7929L17.7929 14.7071C18.1834 14.3166 18.8166 14.3166 19.2071 14.7071L23.7929 19.2929C24.1834 19.6834 24.1834 20.3166 23.7929 20.7071L19.2071 25.2929C18.8166 25.6834 18.1834 25.6834 17.7929 25.2929L17.7071 25.2071C17.3166 24.8166 17.3166 24.1834 17.7071 23.7929L21.5 20Z"
     fill="#FF3E79"
     id="path76"
     style="fill:#ffffff;fill-opacity:1" />
  <path
     style="fill:#000000;fill-opacity:0;stroke-width:0.0484848"
     d="M 18.787879,37.939431 C 14.279066,37.601824 10.199884,35.717426 7.1258347,32.552091 4.2874136,29.629382 2.6162581,26.082102 2.1260975,21.939394 c -0.1140261,-0.963719 -0.1140261,-2.915069 0,-3.878788 C 2.6150393,13.928199 4.2861297,10.371465 7.0978065,7.4788645 10.036549,4.4555417 13.764494,2.6314872 18.036364,2.1267143 c 0.930036,-0.109895 2.997236,-0.109895 3.927272,0 4.273255,0.5049365 7.984482,2.318201 10.923164,5.3369366 2.820602,2.8974371 4.500702,6.4677541 4.986659,10.5969551 0.113268,0.962448 0.113268,2.91634 0,3.878788 -0.260826,2.216251 -0.825824,4.154842 -1.758858,6.034901 -2.544209,5.126569 -7.322191,8.718248 -12.929379,9.719204 -1.300866,0.232221 -3.178214,0.337217 -4.397343,0.245932 z m 0.163214,-12.436574 c 0.08538,-0.04051 1.259168,-1.180685 2.608425,-2.533714 2.405823,-2.412549 2.454335,-2.464967 2.51228,-2.714598 0.04634,-0.199621 0.04641,-0.309469 3.39e-4,-0.50909 -0.0577,-0.250075 -0.102702,-0.298539 -2.562411,-2.759239 L 19.006061,14.481524 18.73913,14.423579 C 18.142966,14.294164 17.548694,14.689692 17.423498,15.29922 17.311644,15.843791 17.25043,15.76347 19.481815,18 l 1.995399,2 -1.995399,2 c -2.231385,2.23653 -2.170171,2.156209 -2.058317,2.70078 0.143673,0.699485 0.903291,1.098328 1.527595,0.802077 z"
     id="path88" />
  <path
     style="fill:#000000;fill-opacity:0;stroke-width:0.0484848"
     d="M 18.787879,37.939431 C 14.279066,37.601824 10.199884,35.717426 7.1258347,32.552091 4.2874136,29.629382 2.6162581,26.082102 2.1260975,21.939394 c -0.1140261,-0.963719 -0.1140261,-2.915069 0,-3.878788 C 2.6150393,13.928199 4.2861297,10.371465 7.0978065,7.4788645 10.036549,4.4555417 13.764494,2.6314872 18.036364,2.1267143 c 0.930036,-0.109895 2.997236,-0.109895 3.927272,0 4.273255,0.5049365 7.984482,2.318201 10.923164,5.3369366 2.820602,2.8974371 4.500702,6.4677541 4.986659,10.5969551 0.113268,0.962448 0.113268,2.91634 0,3.878788 -0.260826,2.216251 -0.825824,4.154842 -1.758858,6.034901 -2.544209,5.126569 -7.322191,8.718248 -12.929379,9.719204 -1.300866,0.232221 -3.178214,0.337217 -4.397343,0.245932 z m 0.163214,-12.436574 c 0.08538,-0.04051 1.259168,-1.180685 2.608425,-2.533714 2.405823,-2.412549 2.454335,-2.464967 2.51228,-2.714598 0.04634,-0.199621 0.04641,-0.309469 3.39e-4,-0.50909 -0.0577,-0.250075 -0.102702,-0.298539 -2.562411,-2.759239 L 19.006061,14.481524 18.73913,14.423579 C 18.142966,14.294164 17.548694,14.689692 17.423498,15.29922 17.311644,15.843791 17.25043,15.76347 19.481815,18 l 1.995399,2 -1.995399,2 c -2.231385,2.23653 -2.170171,2.156209 -2.058317,2.70078 0.143673,0.699485 0.903291,1.098328 1.527595,0.802077 z"
     id="path90" />
  <path
     style="fill:#000000;fill-opacity:0;stroke-width:0.0484848"
     d="M 18.787879,37.939431 C 14.279066,37.601824 10.199884,35.717426 7.1258347,32.552091 4.2874136,29.629382 2.6162581,26.082102 2.1260975,21.939394 c -0.1140261,-0.963719 -0.1140261,-2.915069 0,-3.878788 C 2.6150393,13.928199 4.2861297,10.371465 7.0978065,7.4788645 10.036549,4.4555417 13.764494,2.6314872 18.036364,2.1267143 c 0.930036,-0.109895 2.997236,-0.109895 3.927272,0 4.273255,0.5049365 7.984482,2.318201 10.923164,5.3369366 2.820602,2.8974371 4.500702,6.4677541 4.986659,10.5969551 0.113268,0.962448 0.113268,2.91634 0,3.878788 -0.260826,2.216251 -0.825824,4.154842 -1.758858,6.034901 -2.544209,5.126569 -7.322191,8.718248 -12.929379,9.719204 -1.300866,0.232221 -3.178214,0.337217 -4.397343,0.245932 z m 0.163214,-12.436574 c 0.08538,-0.04051 1.259168,-1.180685 2.608425,-2.533714 2.405823,-2.412549 2.454335,-2.464967 2.51228,-2.714598 0.04634,-0.199621 0.04641,-0.309469 3.39e-4,-0.50909 -0.0577,-0.250075 -0.102702,-0.298539 -2.562411,-2.759239 L 19.006061,14.481524 18.73913,14.423579 C 18.142966,14.294164 17.548694,14.689692 17.423498,15.29922 17.311644,15.843791 17.25043,15.76347 19.481815,18 l 1.995399,2 -1.995399,2 c -2.231385,2.23653 -2.170171,2.156209 -2.058317,2.70078 0.143673,0.699485 0.903291,1.098328 1.527595,0.802077 z"
     id="path92" />
  <path
     style="fill:#000000;fill-opacity:0;stroke-width:0.0484848"
     d="M 18.787879,37.939431 C 14.279066,37.601824 10.199884,35.717426 7.1258347,32.552091 4.2874136,29.629382 2.6162581,26.082102 2.1260975,21.939394 c -0.1140261,-0.963719 -0.1140261,-2.915069 0,-3.878788 C 2.6150393,13.928199 4.2861297,10.371465 7.0978065,7.4788645 10.036549,4.4555417 13.764494,2.6314872 18.036364,2.1267143 c 0.930036,-0.109895 2.997236,-0.109895 3.927272,0 4.273255,0.5049365 7.984482,2.318201 10.923164,5.3369366 2.820602,2.8974371 4.500702,6.4677541 4.986659,10.5969551 0.113268,0.962448 0.113268,2.91634 0,3.878788 -0.260826,2.216251 -0.825824,4.154842 -1.758858,6.034901 -2.544209,5.126569 -7.322191,8.718248 -12.929379,9.719204 -1.300866,0.232221 -3.178214,0.337217 -4.397343,0.245932 z m 0.163214,-12.436574 c 0.08538,-0.04051 1.259168,-1.180685 2.608425,-2.533714 2.405823,-2.412549 2.454335,-2.464967 2.51228,-2.714598 0.04634,-0.199621 0.04641,-0.309469 3.39e-4,-0.50909 -0.0577,-0.250075 -0.102702,-0.298539 -2.562411,-2.759239 L 19.006061,14.481524 18.73913,14.423579 C 18.142966,14.294164 17.548694,14.689692 17.423498,15.29922 17.311644,15.843791 17.25043,15.76347 19.481815,18 l 1.995399,2 -1.995399,2 c -2.231385,2.23653 -2.170171,2.156209 -2.058317,2.70078 0.143673,0.699485 0.903291,1.098328 1.527595,0.802077 z"
     id="path94" />
  <path
     style="fill:#000000;fill-opacity:0;stroke-width:0.0484848"
     d="M 18.787879,37.939431 C 14.279066,37.601824 10.199884,35.717426 7.1258347,32.552091 4.2874136,29.629382 2.6162581,26.082102 2.1260975,21.939394 c -0.1140261,-0.963719 -0.1140261,-2.915069 0,-3.878788 C 2.6150393,13.928199 4.2861297,10.371465 7.0978065,7.4788645 10.036549,4.4555417 13.764494,2.6314872 18.036364,2.1267143 c 0.930036,-0.109895 2.997236,-0.109895 3.927272,0 4.273255,0.5049365 7.984482,2.318201 10.923164,5.3369366 2.820602,2.8974371 4.500702,6.4677541 4.986659,10.5969551 0.113268,0.962448 0.113268,2.91634 0,3.878788 -0.260826,2.216251 -0.825824,4.154842 -1.758858,6.034901 -2.544209,5.126569 -7.322191,8.718248 -12.929379,9.719204 -1.300866,0.232221 -3.178214,0.337217 -4.397343,0.245932 z m 0.163214,-12.436574 c 0.08538,-0.04051 1.259168,-1.180685 2.608425,-2.533714 2.405823,-2.412549 2.454335,-2.464967 2.51228,-2.714598 0.04634,-0.199621 0.04641,-0.309469 3.39e-4,-0.50909 -0.0577,-0.250075 -0.102702,-0.298539 -2.562411,-2.759239 L 19.006061,14.481524 18.73913,14.423579 C 18.142966,14.294164 17.548694,14.689692 17.423498,15.29922 17.311644,15.843791 17.25043,15.76347 19.481815,18 l 1.995399,2 -1.995399,2 c -2.231385,2.23653 -2.170171,2.156209 -2.058317,2.70078 0.143673,0.699485 0.903291,1.098328 1.527595,0.802077 z"
     id="path96" />
  <path
     style="fill:#000000;fill-opacity:0;stroke-width:0.0484848"
     d="M 18.787879,37.939431 C 14.279066,37.601824 10.199884,35.717426 7.1258347,32.552091 4.2874136,29.629382 2.6162581,26.082102 2.1260975,21.939394 c -0.1140261,-0.963719 -0.1140261,-2.915069 0,-3.878788 C 2.6150393,13.928199 4.2861297,10.371465 7.0978065,7.4788645 10.036549,4.4555417 13.764494,2.6314872 18.036364,2.1267143 c 0.930036,-0.109895 2.997236,-0.109895 3.927272,0 4.273255,0.5049365 7.984482,2.318201 10.923164,5.3369366 2.820602,2.8974371 4.500702,6.4677541 4.986659,10.5969551 0.113268,0.962448 0.113268,2.91634 0,3.878788 -0.260826,2.216251 -0.825824,4.154842 -1.758858,6.034901 -2.544209,5.126569 -7.322191,8.718248 -12.929379,9.719204 -1.300866,0.232221 -3.178214,0.337217 -4.397343,0.245932 z m 0.163214,-12.436574 c 0.08538,-0.04051 1.259168,-1.180685 2.608425,-2.533714 2.405823,-2.412549 2.454335,-2.464967 2.51228,-2.714598 0.04634,-0.199621 0.04641,-0.309469 3.39e-4,-0.50909 -0.0577,-0.250075 -0.102702,-0.298539 -2.562411,-2.759239 L 19.006061,14.481524 18.73913,14.423579 C 18.142966,14.294164 17.548694,14.689692 17.423498,15.29922 17.311644,15.843791 17.25043,15.76347 19.481815,18 l 1.995399,2 -1.995399,2 c -2.231385,2.23653 -2.170171,2.156209 -2.058317,2.70078 0.143673,0.699485 0.903291,1.098328 1.527595,0.802077 z"
     id="path98" />
  <path
     style="fill:#ffffff;fill-opacity:0;stroke-width:0.0484848"
     d="M 18.521212,39.923626 C 14.595025,39.61136 11.015094,38.257968 7.9071156,35.910971 6.554785,34.889756 5.1109464,33.446121 4.0907079,32.095102 2.0032038,29.330789 0.67881702,26.142733 0.22174293,22.781752 -0.2073863,19.626256 0.07044349,16.609244 1.0650371,13.624242 3.765915,5.5182943 11.415155,0.02424242 20,0.02424242 c 3.977837,0 7.854638,1.17940988 11.151515,3.39254098 6.289288,4.2218799 9.642711,11.6649136 8.651097,19.2013986 -1.171822,8.906114 -8.118835,15.912299 -17.014733,17.15966 -1.34771,0.188973 -3.009671,0.245758 -4.266667,0.145784 z m 2.521212,-1.9365 c 4.542701,-0.286313 8.556219,-2.08032 11.7103,-5.234402 3.966487,-3.966486 5.850884,-9.54107 5.113941,-15.128492 C 37.027251,11.259883 32.90686,5.8599423 26.991408,3.3717628 25.851181,2.8921562 24.440019,2.4780619 23.2,2.259204 21.140922,1.8957858 18.806627,1.8958016 16.784718,2.2592471 10.339878,3.4177308 5.0162735,7.9994012 2.9314617,14.181818 2.2783056,16.118724 1.9953182,17.877505 1.9953182,20 c 0,1.679369 0.1434758,2.877792 0.5311235,4.436364 1.1430638,4.595788 4.1230919,8.607122 8.1964873,11.033065 3.124895,1.861057 6.740818,2.743251 10.319495,2.517697 z"
     id="path100" />
  <path
     style="fill:#ffffff;fill-opacity:0;stroke-width:0.0484848"
     d="M 18.521212,39.923626 C 14.595025,39.61136 11.015094,38.257968 7.9071156,35.910971 6.554785,34.889756 5.1109464,33.446121 4.0907079,32.095102 2.0032038,29.330789 0.67881702,26.142733 0.22174293,22.781752 -0.2073863,19.626256 0.07044349,16.609244 1.0650371,13.624242 3.765915,5.5182943 11.415155,0.02424242 20,0.02424242 c 3.977837,0 7.854638,1.17940988 11.151515,3.39254098 6.289288,4.2218799 9.642711,11.6649136 8.651097,19.2013986 -1.171822,8.906114 -8.118835,15.912299 -17.014733,17.15966 -1.34771,0.188973 -3.009671,0.245758 -4.266667,0.145784 z m 2.521212,-1.9365 c 4.542701,-0.286313 8.556219,-2.08032 11.7103,-5.234402 3.966487,-3.966486 5.850884,-9.54107 5.113941,-15.128492 C 37.027251,11.259883 32.90686,5.8599423 26.991408,3.3717628 25.851181,2.8921562 24.440019,2.4780619 23.2,2.259204 21.140922,1.8957858 18.806627,1.8958016 16.784718,2.2592471 10.339878,3.4177308 5.0162735,7.9994012 2.9314617,14.181818 2.2783056,16.118724 1.9953182,17.877505 1.9953182,20 c 0,1.679369 0.1434758,2.877792 0.5311235,4.436364 1.1430638,4.595788 4.1230919,8.607122 8.1964873,11.033065 3.124895,1.861057 6.740818,2.743251 10.319495,2.517697 z"
     id="path102" />
  <path
     style="fill:#ffffff;fill-opacity:0;stroke-width:0.0484848"
     d="M 18.521212,39.923626 C 14.595025,39.61136 11.015094,38.257968 7.9071156,35.910971 6.554785,34.889756 5.1109464,33.446121 4.0907079,32.095102 2.0032038,29.330789 0.67881702,26.142733 0.22174293,22.781752 -0.2073863,19.626256 0.07044349,16.609244 1.0650371,13.624242 3.765915,5.5182943 11.415155,0.02424242 20,0.02424242 c 3.977837,0 7.854638,1.17940988 11.151515,3.39254098 6.289288,4.2218799 9.642711,11.6649136 8.651097,19.2013986 -1.171822,8.906114 -8.118835,15.912299 -17.014733,17.15966 -1.34771,0.188973 -3.009671,0.245758 -4.266667,0.145784 z m 2.521212,-1.9365 c 4.542701,-0.286313 8.556219,-2.08032 11.7103,-5.234402 3.966487,-3.966486 5.850884,-9.54107 5.113941,-15.128492 C 37.027251,11.259883 32.90686,5.8599423 26.991408,3.3717628 25.851181,2.8921562 24.440019,2.4780619 23.2,2.259204 21.140922,1.8957858 18.806627,1.8958016 16.784718,2.2592471 10.339878,3.4177308 5.0162735,7.9994012 2.9314617,14.181818 2.2783056,16.118724 1.9953182,17.877505 1.9953182,20 c 0,1.679369 0.1434758,2.877792 0.5311235,4.436364 1.1430638,4.595788 4.1230919,8.607122 8.1964873,11.033065 3.124895,1.861057 6.740818,2.743251 10.319495,2.517697 z"
     id="path104" />
  <path
     style="fill:#ffffff;fill-opacity:0;stroke-width:0.0484848"
     d="M 18.521212,39.923626 C 14.595025,39.61136 11.015094,38.257968 7.9071156,35.910971 6.554785,34.889756 5.1109464,33.446121 4.0907079,32.095102 2.0032038,29.330789 0.67881702,26.142733 0.22174293,22.781752 -0.2073863,19.626256 0.07044349,16.609244 1.0650371,13.624242 3.765915,5.5182943 11.415155,0.02424242 20,0.02424242 c 3.977837,0 7.854638,1.17940988 11.151515,3.39254098 6.289288,4.2218799 9.642711,11.6649136 8.651097,19.2013986 -1.171822,8.906114 -8.118835,15.912299 -17.014733,17.15966 -1.34771,0.188973 -3.009671,0.245758 -4.266667,0.145784 z m 2.521212,-1.9365 c 4.542701,-0.286313 8.556219,-2.08032 11.7103,-5.234402 3.966487,-3.966486 5.850884,-9.54107 5.113941,-15.128492 C 37.027251,11.259883 32.90686,5.8599423 26.991408,3.3717628 25.851181,2.8921562 24.440019,2.4780619 23.2,2.259204 21.140922,1.8957858 18.806627,1.8958016 16.784718,2.2592471 10.339878,3.4177308 5.0162735,7.9994012 2.9314617,14.181818 2.2783056,16.118724 1.9953182,17.877505 1.9953182,20 c 0,1.679369 0.1434758,2.877792 0.5311235,4.436364 1.1430638,4.595788 4.1230919,8.607122 8.1964873,11.033065 3.124895,1.861057 6.740818,2.743251 10.319495,2.517697 z"
     id="path106" />
  <path
     style="fill:#000000;fill-opacity:0;stroke-width:0.0484848"
     d="m 18.074073,25.442991 c -0.367098,-0.182932 -0.645102,-0.595437 -0.642705,-0.953648 0.0025,-0.376525 0.129023,-0.52667 2.145751,-2.546748 l 1.948014,-1.951251 -1.991767,-2.000264 c -1.825432,-1.833221 -1.996894,-2.019336 -2.053174,-2.228632 -0.109072,-0.405626 0.0039,-0.730895 0.363728,-1.047669 0.267129,-0.235135 0.54351,-0.310446 0.883353,-0.240702 0.22093,0.04534 0.330573,0.147209 2.694234,2.503213 1.355162,1.350772 2.499499,2.521404 2.542971,2.601404 0.127622,0.234862 0.106508,0.639553 -0.04683,0.897648 -0.07114,0.11973 -1.182327,1.268066 -2.47192,2.554551 -2.443031,2.437144 -2.553667,2.532158 -2.951355,2.534615 -0.09476,5.87e-4 -0.283897,-0.05455 -0.420295,-0.122517 z"
     id="path108" />
  <path
     style="fill:#0e0000;fill-opacity:0;stroke-width:0.0484848"
     d="m 18.074073,25.442991 c -0.367098,-0.182932 -0.645102,-0.595437 -0.642705,-0.953648 0.0025,-0.376525 0.129023,-0.52667 2.145751,-2.546748 l 1.948014,-1.951251 -1.991767,-2.000264 c -1.825432,-1.833221 -1.996894,-2.019336 -2.053174,-2.228632 -0.109072,-0.405626 0.0039,-0.730895 0.363728,-1.047669 0.267129,-0.235135 0.54351,-0.310446 0.883353,-0.240702 0.22093,0.04534 0.330573,0.147209 2.694234,2.503213 1.355162,1.350772 2.499499,2.521404 2.542971,2.601404 0.127622,0.234862 0.106508,0.639553 -0.04683,0.897648 -0.07114,0.11973 -1.182327,1.268066 -2.47192,2.554551 -2.443031,2.437144 -2.553667,2.532158 -2.951355,2.534615 -0.09476,5.87e-4 -0.283897,-0.05455 -0.420295,-0.122517 z"
     id="path110" />
</svg>
